<svg width="28" height="28" viewBox="0 0 28 28" fill="none" xmlns="http://www.w3.org/2000/svg">
<path d="M18.6452 24.6094H5.67984C4.9859 24.6086 4.32059 24.3327 3.8299 23.842C3.33921 23.3513 3.06322 22.686 3.0625 21.992V14.2543C3.06322 13.5604 3.33921 12.895 3.8299 12.4044C4.32059 11.9137 4.9859 11.6377 5.67984 11.6369H18.6452C19.3391 11.6377 20.0044 11.9137 20.4951 12.4044C20.9858 12.895 21.2618 13.5604 21.2625 14.2543V21.992C21.2618 22.686 20.9858 23.3513 20.4951 23.842C20.0044 24.3327 19.3391 24.6086 18.6452 24.6094ZM5.67984 13.2776C5.42089 13.2779 5.17263 13.3809 4.98952 13.564C4.80641 13.7471 4.70341 13.9953 4.70312 14.2543V21.992C4.70341 22.251 4.80641 22.4992 4.98952 22.6824C5.17263 22.8655 5.42089 22.9685 5.67984 22.9687H18.6452C18.9041 22.9685 19.1524 22.8655 19.3355 22.6824C19.5186 22.4992 19.6216 22.251 19.6219 21.992V14.2543C19.6216 13.9953 19.5186 13.7471 19.3355 13.564C19.1524 13.3809 18.9041 13.2779 18.6452 13.2776H5.67984Z" fill="#FFBB38"/>
<path d="M22.3213 20.1917H20.4422C20.2247 20.1917 20.016 20.1053 19.8622 19.9515C19.7084 19.7976 19.6219 19.589 19.6219 19.3714C19.6219 19.1538 19.7084 18.9452 19.8622 18.7914C20.016 18.6375 20.2247 18.5511 20.4422 18.5511H22.3213C22.5801 18.5505 22.8281 18.4474 23.0109 18.2643C23.1938 18.0812 23.2966 17.8331 23.2969 17.5744V9.83664C23.2968 9.57778 23.194 9.32954 23.0111 9.14635C22.8282 8.96315 22.5802 8.85995 22.3213 8.85938H9.35599C9.09704 8.85966 8.84877 8.96266 8.66567 9.14577C8.48256 9.32888 8.37956 9.57714 8.37927 9.83609V12.4567C8.37927 12.6743 8.29285 12.8829 8.13901 13.0368C7.98517 13.1906 7.77652 13.277 7.55896 13.277C7.3414 13.277 7.13275 13.1906 6.97891 13.0368C6.82507 12.8829 6.73865 12.6743 6.73865 12.4567V9.83664C6.73923 9.1426 7.01515 8.47715 7.50586 7.98635C7.99656 7.49554 8.66196 7.21947 9.35599 7.21875H22.3213C23.0152 7.21976 23.6803 7.49595 24.1707 7.98673C24.6612 8.47751 24.937 9.14279 24.9376 9.83664V17.5744C24.9368 18.2681 24.661 18.9333 24.1705 19.4239C23.6801 19.9146 23.0151 20.1907 22.3213 20.1917Z" fill="#FFBB38"/>
<path d="M20.4422 18.7463H3.88281C3.66525 18.7463 3.4566 18.6599 3.30276 18.5061C3.14893 18.3522 3.0625 18.1436 3.0625 17.926V15.1709C3.0625 14.9533 3.14893 14.7447 3.30276 14.5908C3.4566 14.437 3.66525 14.3506 3.88281 14.3506H20.4422C20.6597 14.3506 20.8684 14.437 21.0222 14.5908C21.1761 14.7447 21.2625 14.9533 21.2625 15.1709V17.926C21.2625 18.1436 21.1761 18.3522 21.0222 18.5061C20.8684 18.6599 20.6597 18.7463 20.4422 18.7463ZM4.70312 17.1057H19.6219V15.9912H4.70312V17.1057Z" fill="#FFBB38"/>
</svg>
