<svg width="28" height="28" viewBox="0 0 28 28" fill="none" xmlns="http://www.w3.org/2000/svg">
<path d="M22.995 8.38251C22.9812 6.85223 22.3642 5.3892 21.278 4.31119C20.1918 3.23318 18.7241 2.62725 17.1938 2.62501H8.75004C8.54031 2.62231 8.33659 2.69504 8.17598 2.82995C8.01538 2.96485 7.90858 3.15296 7.87504 3.36001L4.88254 22.1288C4.86384 22.253 4.87214 22.3799 4.90687 22.5007C4.94159 22.6215 5.00194 22.7334 5.08379 22.8288C5.16511 22.9264 5.26673 23.0052 5.38157 23.0596C5.49641 23.114 5.62172 23.1427 5.74879 23.1438H9.36254L9.17004 24.36C9.14959 24.4861 9.15699 24.6151 9.19171 24.738C9.22643 24.8609 9.28764 24.9747 9.37102 25.0714C9.45441 25.1681 9.55795 25.2454 9.67439 25.2979C9.79083 25.3503 9.91734 25.3767 10.045 25.375H14.1138C14.3222 25.378 14.5249 25.3065 14.6853 25.1734C14.8458 25.0403 14.9534 24.8542 14.9888 24.6488L15.8638 19.3025H18.62C20.3452 19.2956 21.9974 18.606 23.2156 17.3845C24.4339 16.163 25.119 14.5089 25.1213 12.7838V12.5388C25.1204 11.7273 24.9273 10.9275 24.5577 10.2051C24.1881 9.48266 23.6526 8.85807 22.995 8.38251ZM9.49379 4.37501H17.1938C18.1118 4.37783 19.0018 4.69168 19.7184 5.26535C20.4351 5.83902 20.9363 6.63865 21.14 7.53376C20.7615 7.44498 20.3738 7.40093 19.985 7.40251H12.6875C12.4778 7.39981 12.2741 7.47254 12.1135 7.60745C11.9529 7.74235 11.8461 7.93046 11.8125 8.13751L11.2963 11.375C11.2592 11.6071 11.3157 11.8444 11.4536 12.0347C11.5914 12.2251 11.7992 12.3529 12.0313 12.39C12.2634 12.4271 12.5007 12.3706 12.691 12.2327C12.8814 12.0949 13.0092 11.8871 13.0463 11.655L13.4488 9.13501H20.0025C20.422 9.13721 20.8374 9.21732 21.2275 9.37126C21.0612 10.741 20.4003 12.0029 19.3691 12.9197C18.3379 13.8365 17.0074 14.3451 15.6275 14.35H11.5675C11.3591 14.347 11.1564 14.4185 10.996 14.5516C10.8356 14.6848 10.728 14.8708 10.6925 15.0763L9.62504 21.3938H6.77254L9.49379 4.37501ZM23.3713 12.7838C23.369 14.0448 22.8682 15.2538 21.9782 16.1471C21.0882 17.0404 19.881 17.5456 18.62 17.5525H15.12C14.9116 17.5495 14.7089 17.621 14.5485 17.7541C14.3881 17.8873 14.2805 18.0733 14.245 18.2788L13.37 23.625H11.06L11.2525 22.4088L12.3025 16.1175H15.61C17.2435 16.1127 18.8296 15.5677 20.121 14.5675C21.4125 13.5672 22.3368 12.1679 22.75 10.5875C23.1562 11.1569 23.3734 11.8394 23.3713 12.5388V12.7838Z" fill="#396AFF"/>
</svg>
